<svg xmlns="http://www.w3.org/2000/svg" version="1" width="181" height="51" viewBox="0 0 908 338"><text font-size="176.732" font-weight="700" x="-88.94" y="204.393" fill="#1772b6" style="-inkscape-font-specification:'sans-serif, Bold';font-variant-ligatures:normal;font-variant-caps:normal;font-variant-numeric:normal;font-variant-east-asian:normal" font-family="sans-serif" fill-opacity=".682">EGDI</text><path d="M941.442 286.591l-150.386 54.377-150.7-54.594 149.885-54.072c44.412 15.116 111.758 38.073 151.2 54.29z" stroke-opacity="null" stroke-linecap="null" stroke-linejoin="null" stroke-width=".917" stroke="null" fill-opacity=".682" fill="#ffcf00"/><path d="M790.757 92.944l150.93 53.724-.245 139.923-151.2-54.289z" fill="#cf4922" fill-rule="evenodd" fill-opacity=".682"/><path d="M790.757 92.944l-149.822 53.144 149.222 54.968" fill="#900c07" fill-opacity=".682"/><path d="M617.46 161.775l-.695 107.832 150.952-53.617z" fill="#1772b6" fill-opacity=".682"/><path d="M466.614 75.855L617.32 130.75l-.555 138.856-151.194-54.27z" fill="#94bd22" fill-rule="evenodd" fill-opacity=".682"/><path d="M619.13 21.35L466.614 75.854l150.704 54.895 151.23-53.814C730.528 61.329 655.739 39.9 619.13 21.349z" fill="#dd0" fill-opacity=".682"/></svg>